<svg width="64" height="63" viewBox="0 0 64 63" fill="none" xmlns="http://www.w3.org/2000/svg">
<path d="M33.9686 10.3425C36.5936 8.45247 39.6386 7.50747 43.0773 7.50747C44.9673 7.50747 47.0411 8.00622 49.2986 9.05622C51.5561 10.08 53.3411 11.2875 54.6536 12.6787C57.3573 16.0387 58.4861 19.95 58.0924 24.4125C57.6724 28.875 56.2023 32.3662 53.6561 34.8337L33.7324 54.7575C33.2336 55.2562 32.6036 55.4925 31.8686 55.4925C31.1336 55.4925 30.5298 55.2562 30.0311 54.7575C29.7884 54.5185 29.5978 54.2319 29.4713 53.9156C29.3448 53.5994 29.2852 53.2604 29.2961 52.92C29.2961 52.185 29.5323 51.555 30.0311 51.0562L42.0798 39.0075C42.7361 38.43 42.7361 37.8262 42.0798 37.17C41.4236 36.5137 40.8199 36.5137 40.2424 37.17L28.1936 49.2187C27.9506 49.4634 27.6596 49.6551 27.3388 49.7816C27.018 49.9081 26.6744 49.9667 26.3299 49.9537C25.5949 49.9537 24.9911 49.7175 24.4924 49.2187C24.2497 48.9798 24.0591 48.6931 23.9326 48.3769C23.8061 48.0606 23.7464 47.7216 23.7574 47.3812C23.7574 46.6462 23.9936 46.0162 24.4924 45.5175L36.5411 33.4687C37.2498 32.8125 37.2498 32.1562 36.5411 31.5C35.9373 30.8437 35.3598 30.8437 34.7036 31.5L22.6549 43.68C22.4091 43.9209 22.1176 44.1101 21.7975 44.2364C21.4773 44.3626 21.1351 44.4233 20.7911 44.415C20.0561 44.415 19.4261 44.1787 18.8749 43.68C18.3499 43.1812 18.0873 42.5775 18.0873 41.8425C18.0873 41.1075 18.3761 40.4512 18.9536 39.8737L31.0286 27.7987C31.6849 27.1425 31.6849 26.5387 31.0286 25.9612C30.3724 25.3837 29.7423 25.3837 29.1649 25.9612L16.9849 38.0625C16.4074 38.5875 15.8036 38.8762 15.1474 38.8762C14.4124 38.8762 13.7824 38.6137 13.3099 38.0625C12.8111 37.5375 12.5486 36.9075 12.5486 36.1725C12.5486 35.4375 12.8111 34.8337 13.3099 34.335C21.3424 26.25 26.3036 21.3675 28.1936 19.5562L37.5386 28.7962C38.5624 29.7675 39.7436 30.2662 41.1874 30.2662C43.0248 30.2662 44.4686 29.5312 45.5448 28.0612C46.2799 26.985 46.5423 25.8037 46.3323 24.4912C46.1223 23.1787 45.5711 22.0762 44.6786 21.1575L33.9686 10.3425ZM39.3761 26.9587L28.1936 15.75L9.6086 34.335C7.4036 32.1037 6.1436 28.6912 5.85485 24.045C5.5661 19.425 6.8261 15.4087 9.6086 12.0487C12.7324 8.95122 16.4599 7.37622 20.7911 7.37622C25.1486 7.37622 28.8498 8.95122 31.8686 12.0487L43.0773 23.2575C43.5761 23.7562 43.8124 24.36 43.8124 25.095C43.8124 25.83 43.5761 26.46 43.0773 26.9587C42.5786 27.4312 41.9748 27.6937 41.1874 27.6937C40.4786 27.6937 39.8749 27.4312 39.3761 26.9587Z" fill="#FF4800" fill-opacity="0.83"/>
</svg>
