<svg width="25" height="25" viewBox="0 0 25 25" fill="none" xmlns="http://www.w3.org/2000/svg">
<path d="M11.0417 14.3752L8.80212 12.1356C8.61115 11.9446 8.3681 11.8491 8.07296 11.8491C7.77782 11.8491 7.53476 11.9446 7.34379 12.1356C7.15282 12.3266 7.05733 12.5696 7.05733 12.8647C7.05733 13.1599 7.15282 13.4029 7.34379 13.5939L10.3125 16.5627C10.5209 16.771 10.7639 16.8752 11.0417 16.8752C11.3195 16.8752 11.5625 16.771 11.7709 16.5627L17.6563 10.6772C17.8473 10.4863 17.9427 10.2432 17.9427 9.94808C17.9427 9.65294 17.8473 9.40988 17.6563 9.21891C17.4653 9.02794 17.2223 8.93245 16.9271 8.93245C16.632 8.93245 16.3889 9.02794 16.198 9.21891L11.0417 14.3752ZM12.5 22.9168C11.0591 22.9168 9.7049 22.6432 8.43754 22.096C7.17018 21.5488 6.06775 20.8068 5.13025 19.87C4.19275 18.9331 3.45074 17.8307 2.90421 16.5627C2.35768 15.2946 2.08407 13.9404 2.08338 12.5002C2.08268 11.0599 2.35629 9.70572 2.90421 8.43766C3.45213 7.16961 4.19414 6.06718 5.13025 5.13037C6.06636 4.19357 7.16879 3.45155 8.43754 2.90433C9.70629 2.35711 11.0605 2.0835 12.5 2.0835C13.9396 2.0835 15.2938 2.35711 16.5625 2.90433C17.8313 3.45155 18.9337 4.19357 19.8698 5.13037C20.8059 6.06718 21.5483 7.16961 22.0969 8.43766C22.6455 9.70572 22.9188 11.0599 22.9167 12.5002C22.9146 13.9404 22.641 15.2946 22.0959 16.5627C21.5507 17.8307 20.8087 18.9331 19.8698 19.87C18.9309 20.8068 17.8285 21.5491 16.5625 22.097C15.2966 22.645 13.9424 22.9182 12.5 22.9168ZM12.5 20.8335C14.8264 20.8335 16.7969 20.0262 18.4115 18.4116C20.0261 16.797 20.8334 14.8266 20.8334 12.5002C20.8334 10.1738 20.0261 8.20329 18.4115 6.5887C16.7969 4.97412 14.8264 4.16683 12.5 4.16683C10.1737 4.16683 8.20317 4.97412 6.58858 6.5887C4.974 8.20329 4.16671 10.1738 4.16671 12.5002C4.16671 14.8266 4.974 16.797 6.58858 18.4116C8.20317 20.0262 10.1737 20.8335 12.5 20.8335Z" fill="#0091BE"/>
</svg>
