<svg width="584" height="94" viewBox="0 0 584 94" fill="none" xmlns="http://www.w3.org/2000/svg">
<path d="M130.48 50.72H133.36C134.08 50.72 134.44 50.36 134.44 49.64V25.88C134.44 25.5067 134.347 25.24 134.16 25.08C134 24.8933 133.733 24.8 133.36 24.8H130.48V23.52H157.84V24.8H154.96C154.587 24.8 154.307 24.8933 154.12 25.08C153.96 25.24 153.88 25.5067 153.88 25.88V49.64C153.88 50.36 154.24 50.72 154.96 50.72H157.84V52H146.24V50.72H149.12C149.84 50.72 150.2 50.36 150.2 49.64V25.88C150.2 25.5067 150.107 25.24 149.92 25.08C149.76 24.8933 149.493 24.8 149.12 24.8H139.2C138.827 24.8 138.547 24.8933 138.36 25.08C138.2 25.24 138.12 25.5067 138.12 25.88V49.64C138.12 50.36 138.48 50.72 139.2 50.72H142.08V52H130.48V50.72ZM170.883 52.72C169.31 52.72 167.99 52.28 166.923 51.4C165.883 50.52 165.363 49.3867 165.363 48C165.363 46.9067 165.657 45.9733 166.243 45.2C166.83 44.4 167.657 44 168.723 44C169.497 44 170.123 44.2133 170.603 44.64C171.11 45.04 171.363 45.6267 171.363 46.4C171.363 46.96 171.203 47.4533 170.883 47.88C170.563 48.28 170.083 48.56 169.443 48.72C169.203 48.7733 169.03 48.84 168.923 48.92C168.843 48.9733 168.75 49.0667 168.643 49.2C168.537 49.3867 168.483 49.6 168.483 49.84C168.483 50.3733 168.737 50.7733 169.243 51.04C169.75 51.3067 170.323 51.44 170.963 51.44C172.057 51.44 172.937 51.04 173.603 50.24C174.297 49.4133 174.923 48.2533 175.483 46.76L175.803 45.84L165.963 26.56C165.617 25.8933 165.27 25.44 164.923 25.2C164.603 24.9333 164.163 24.8 163.603 24.8H161.203V23.52H173.923V24.8H171.443C171.017 24.8 170.67 24.8533 170.403 24.96C170.137 25.0667 170.003 25.2267 170.003 25.44C170.003 26 170.07 26.4133 170.203 26.68L177.563 41.52L182.163 29.8C182.35 29.2933 182.51 28.7333 182.643 28.12C182.803 27.48 182.883 27 182.883 26.68C182.883 26.1467 182.723 25.7067 182.403 25.36C182.083 24.9867 181.55 24.8 180.803 24.8H178.643V23.52H189.443V24.8H187.603C186.83 24.8 186.23 25.0533 185.803 25.56C185.377 26.0667 184.977 26.7867 184.603 27.72L177.323 46.28C176.63 48.12 175.817 49.6533 174.883 50.88C173.95 52.1067 172.617 52.72 170.883 52.72ZM192.902 50.72H195.782C196.502 50.72 196.862 50.36 196.862 49.64V25.88C196.862 25.16 196.502 24.8 195.782 24.8H192.902V23.52H204.502V24.8H201.622C200.902 24.8 200.542 25.16 200.542 25.88V36.4H212.622V25.88C212.622 25.16 212.262 24.8 211.542 24.8H208.662V23.52H220.262V24.8H217.382C216.662 24.8 216.302 25.16 216.302 25.88V49.64C216.302 50.36 216.662 50.72 217.382 50.72H220.262V52H208.662V50.72H211.542C212.262 50.72 212.622 50.36 212.622 49.64V37.68H200.542V49.64C200.542 50.36 200.902 50.72 201.622 50.72H204.502V52H192.902V50.72ZM245.065 52.48C243.705 52.48 242.665 52.1733 241.945 51.56C241.225 50.9467 240.745 50.1733 240.505 49.24C240.265 48.28 240.119 47.0933 240.065 45.68C239.932 43.1467 239.625 41.1867 239.145 39.8C238.692 38.3867 237.799 37.68 236.465 37.68H232.065V49.64C232.065 50.36 232.425 50.72 233.145 50.72H236.025V52H224.425V50.72H227.305C228.025 50.72 228.385 50.36 228.385 49.64V25.88C228.385 25.5067 228.292 25.24 228.105 25.08C227.945 24.8933 227.679 24.8 227.305 24.8H224.425V23.52H236.025V24.8H233.145C232.772 24.8 232.492 24.8933 232.305 25.08C232.145 25.24 232.065 25.5067 232.065 25.88V36.4H235.505C236.999 36.4 238.039 35.8533 238.625 34.76C239.212 33.64 239.572 31.8133 239.705 29.28C239.785 27.52 240.052 26.2133 240.505 25.36C240.879 24.64 241.372 24.08 241.985 23.68C242.625 23.2533 243.279 23.04 243.945 23.04C245.145 23.04 246.105 23.3333 246.825 23.92C247.732 24.7467 248.185 25.8133 248.185 27.12C248.185 28.08 247.972 28.8933 247.545 29.56C247.279 29.96 246.932 30.28 246.505 30.52C246.105 30.76 245.679 30.88 245.225 30.88C244.505 30.88 243.945 30.68 243.545 30.28C243.119 29.8533 242.905 29.3467 242.905 28.76C242.905 28.2533 242.999 27.84 243.185 27.52C243.399 27.2 243.705 26.9067 244.105 26.64C244.692 26.1867 244.985 25.7867 244.985 25.44C244.985 25.1467 244.852 24.9467 244.585 24.84C244.319 24.7067 244.052 24.64 243.785 24.64C242.772 24.64 242.065 25.0933 241.665 26C241.292 26.9067 241.039 28.4 240.905 30.48C240.799 32.1067 240.572 33.4667 240.225 34.56C239.879 35.6533 239.212 36.4267 238.225 36.88V37.08C239.959 37.88 241.239 38.6533 242.065 39.4C242.892 40.1467 243.465 41.08 243.785 42.2C244.105 43.2933 244.332 44.8933 244.465 47C244.545 48.2267 244.705 49.1467 244.945 49.76C245.212 50.3467 245.692 50.64 246.385 50.64C247.185 50.64 247.785 50.0933 248.185 49C248.585 47.88 248.785 46.7467 248.785 45.6H249.785C249.785 47.1733 249.452 48.72 248.785 50.24C248.119 51.7333 246.879 52.48 245.065 52.48ZM258.967 50.72H262.807C263.527 50.72 263.887 50.36 263.887 49.64V25.76C263.887 25.3867 263.807 25.12 263.647 24.96C263.487 24.7733 263.207 24.68 262.807 24.68H261.367C259.687 24.68 258.234 25.5333 257.007 27.24C256.234 28.3333 255.714 29.7067 255.447 31.36C255.18 32.9867 255.047 34.1867 255.047 34.96H253.927L254.247 23.52H277.207L277.527 34.96H276.407C276.407 34.1867 276.274 32.9867 276.007 31.36C275.74 29.7067 275.22 28.3333 274.447 27.24C273.22 25.5333 271.767 24.68 270.087 24.68H268.647C268.247 24.68 267.967 24.7733 267.807 24.96C267.647 25.12 267.567 25.3867 267.567 25.76V49.64C267.567 50.36 267.927 50.72 268.647 50.72H272.487V52H258.967V50.72ZM299.093 27.12H298.853V47.52C298.853 48.5067 299.079 49.2933 299.533 49.88C300.013 50.44 300.626 50.72 301.372 50.72H302.813V52H293.293V50.72H294.733C295.479 50.72 296.079 50.44 296.533 49.88C297.013 49.2933 297.253 48.5067 297.253 47.52V25.88C297.253 25.5067 297.159 25.24 296.973 25.08C296.813 24.8933 296.546 24.8 296.173 24.8H293.293V23.52H301.773L308.293 45.56L314.373 23.52H322.653V24.8H319.773C319.399 24.8 319.119 24.8933 318.933 25.08C318.773 25.24 318.693 25.5067 318.693 25.88V49.64C318.693 50.36 319.053 50.72 319.773 50.72H322.653V52H311.053V50.72H313.933C314.653 50.72 315.013 50.36 315.013 49.64V26.04L307.693 52.48H306.733L299.093 27.12ZM326.808 50.72H329.688C330.408 50.72 330.768 50.36 330.768 49.64V25.88C330.768 25.5067 330.675 25.24 330.488 25.08C330.328 24.8933 330.061 24.8 329.688 24.8H326.808V23.52H338.408V24.8H335.528C335.155 24.8 334.875 24.8933 334.688 25.08C334.528 25.24 334.448 25.5067 334.448 25.88V46L345.808 27.2V25.88C345.808 25.5067 345.715 25.24 345.528 25.08C345.368 24.8933 345.101 24.8 344.728 24.8H341.848V23.52H353.448V24.8H350.568C349.848 24.8 349.488 25.16 349.488 25.88V49.64C349.488 50.36 349.848 50.72 350.568 50.72H353.448V52H341.848V50.72H344.728C345.448 50.72 345.808 50.36 345.808 49.64V29.52L334.448 48.32V49.64C334.448 50.36 334.808 50.72 335.528 50.72H338.408V52H326.808V50.72ZM361.229 52.48C360.003 52.48 358.976 52.08 358.149 51.28C357.349 50.48 356.949 49.3867 356.949 48C356.949 46.88 357.283 45.9867 357.949 45.32C358.643 44.6533 359.469 44.32 360.429 44.32C361.176 44.32 361.749 44.56 362.149 45.04C362.576 45.4933 362.789 46.0267 362.789 46.64C362.789 47.2533 362.643 47.7467 362.349 48.12C362.083 48.4933 361.709 48.84 361.229 49.16C360.723 49.5333 360.469 49.9333 360.469 50.36C360.469 50.6267 360.563 50.84 360.749 51C360.963 51.1333 361.229 51.2 361.549 51.2C362.723 51.2 363.589 50.88 364.149 50.24C364.709 49.5733 365.149 48.7467 365.469 47.76C366.029 46.0533 366.469 43.1733 366.789 39.12C367.136 35.04 367.309 31.0533 367.309 27.16C367.309 26.36 367.109 25.7733 366.709 25.4C366.309 25 365.643 24.8 364.709 24.8H362.869V23.52H384.549V24.8H381.669C381.296 24.8 381.016 24.8933 380.829 25.08C380.669 25.24 380.589 25.5067 380.589 25.88V49.64C380.589 50.36 380.949 50.72 381.669 50.72H384.549V52H372.949V50.72H375.829C376.549 50.72 376.909 50.36 376.909 49.64V25.88C376.909 25.48 376.829 25.2 376.669 25.04C376.536 24.88 376.283 24.8 375.909 24.8H372.469C371.376 24.8 370.563 25.0933 370.029 25.68C369.496 26.24 369.149 26.9467 368.989 27.8C368.829 28.6533 368.723 29.76 368.669 31.12C368.376 38.4267 367.829 43.7467 367.029 47.08C366.736 48.36 366.176 49.5867 365.349 50.76C364.523 51.9067 363.149 52.48 361.229 52.48ZM400.642 52.72C398.402 52.72 396.402 52.0133 394.642 50.6C392.882 49.1867 391.509 47.3333 390.522 45.04C389.536 42.72 389.042 40.2933 389.042 37.76C389.042 35.2267 389.536 32.8133 390.522 30.52C391.509 28.2 392.882 26.3333 394.642 24.92C396.402 23.5067 398.402 22.8 400.642 22.8C402.882 22.8 404.882 23.5067 406.642 24.92C408.402 26.3333 409.776 28.2 410.762 30.52C411.749 32.8133 412.242 35.2267 412.242 37.76C412.242 40.2933 411.749 42.72 410.762 45.04C409.776 47.3333 408.402 49.1867 406.642 50.6C404.882 52.0133 402.882 52.72 400.642 52.72ZM400.642 51.44C403.256 51.44 405.136 50.2533 406.282 47.88C407.429 45.48 408.002 42.1067 408.002 37.76C408.002 33.3867 407.429 30.0133 406.282 27.64C405.136 25.2667 403.256 24.08 400.642 24.08C398.029 24.08 396.149 25.2667 395.002 27.64C393.856 30.0133 393.282 33.3867 393.282 37.76C393.282 42.1067 393.856 45.48 395.002 47.88C396.149 50.2533 398.029 51.44 400.642 51.44ZM428.89 52.72C426.41 52.72 424.277 52 422.49 50.56C420.703 49.12 419.343 47.24 418.41 44.92C417.503 42.5733 417.05 40.1067 417.05 37.52C417.05 34.8267 417.503 32.36 418.41 30.12C419.317 27.88 420.61 26.1067 422.29 24.8C423.97 23.4667 425.93 22.8 428.17 22.8C429.343 22.8 430.45 23.0667 431.49 23.6C432.53 24.1333 433.383 24.7067 434.05 25.32C434.69 25.9067 435.117 26.2 435.33 26.2C435.543 26.2 435.69 26.1333 435.77 26C435.877 25.8667 435.983 25.6533 436.09 25.36L436.85 23.12H437.85L438.01 35.52H436.89C436.303 32.9867 435.543 30.8667 434.61 29.16C433.677 27.4267 432.65 26.1467 431.53 25.32C430.437 24.4933 429.343 24.08 428.25 24.08C425.717 24.08 423.917 25.2267 422.85 27.52C421.81 29.8133 421.29 33.1467 421.29 37.52C421.29 42.0267 421.837 45.48 422.93 47.88C424.023 50.2533 426.01 51.44 428.89 51.44C431.45 51.44 433.397 50.4933 434.73 48.6C436.09 46.68 436.863 44.36 437.05 41.64H438.49C438.41 43.2133 438.077 44.84 437.49 46.52C436.93 48.2 435.943 49.6533 434.53 50.88C433.117 52.1067 431.237 52.72 428.89 52.72ZM443.527 50.72H446.407C447.127 50.72 447.487 50.36 447.487 49.64V25.88C447.487 25.5067 447.394 25.24 447.207 25.08C447.047 24.8933 446.78 24.8 446.407 24.8H443.527V23.52H465.847L466.007 33.52H465.007C465.007 32.9867 464.887 32.08 464.647 30.8C464.434 29.52 463.994 28.3733 463.327 27.36C462.207 25.6533 460.634 24.8 458.607 24.8H452.247C451.874 24.8 451.594 24.8933 451.407 25.08C451.247 25.24 451.167 25.5067 451.167 25.88V36.64H454.247C455.607 36.64 456.58 35.9467 457.167 34.56C457.78 33.1733 458.087 31.6933 458.087 30.12H459.127V44.44H458.087C458.087 42.8667 457.78 41.3867 457.167 40C456.58 38.6133 455.607 37.92 454.247 37.92H451.167V49.64C451.167 50.36 451.527 50.72 452.247 50.72H458.647C459.42 50.72 460.207 50.5467 461.007 50.2C461.807 49.8533 462.487 49.32 463.047 48.6C463.58 47.8533 464.02 46.92 464.367 45.8C464.714 44.68 464.954 43.6667 465.087 42.76C465.22 41.8267 465.3 41.2267 465.327 40.96H466.327L465.847 52H443.527V50.72ZM471.144 50.72H474.024C474.744 50.72 475.104 50.36 475.104 49.64V25.88C475.104 25.5067 475.011 25.24 474.824 25.08C474.664 24.8933 474.397 24.8 474.024 24.8H471.144V23.52H484.504C486.371 23.52 488.024 23.84 489.464 24.48C490.931 25.0933 492.064 25.9733 492.864 27.12C493.691 28.24 494.104 29.52 494.104 30.96C494.104 32.4267 493.691 33.7333 492.864 34.88C492.064 36.0267 490.931 36.9333 489.464 37.6C488.024 38.24 486.371 38.56 484.504 38.56H478.784V49.64C478.784 50.0133 478.864 50.2933 479.024 50.48C479.184 50.64 479.464 50.72 479.864 50.72H483.384V52H471.144V50.72ZM485.024 37.28C486.464 37.28 487.624 36.6667 488.504 35.44C489.411 34.1867 489.864 32.6933 489.864 30.96C489.864 29.2267 489.424 27.7733 488.544 26.6C487.664 25.4 486.491 24.8 485.024 24.8H479.864C479.491 24.8 479.211 24.8933 479.024 25.08C478.864 25.24 478.784 25.5067 478.784 25.88V37.28H485.024ZM494.481 51.28H496.641C497.388 51.28 497.948 51.1067 498.321 50.76C498.721 50.4133 499.094 49.8533 499.441 49.08C500.588 46.52 501.468 43.3733 502.081 39.64C502.721 35.88 503.041 31.72 503.041 27.16C503.041 25.5867 502.348 24.8 500.961 24.8H498.721V23.52H520.401V24.8H517.521C517.148 24.8 516.868 24.8933 516.681 25.08C516.521 25.24 516.441 25.5067 516.441 25.88V49.12C516.441 50.56 517.161 51.28 518.601 51.28H521.281V60H520.281C520.281 59.3067 520.148 58.2667 519.881 56.88C519.641 55.52 519.108 54.3867 518.281 53.48C517.881 53.0533 517.348 52.6933 516.681 52.4C516.041 52.1333 515.348 52 514.601 52H501.121C500.401 52 499.708 52.1333 499.041 52.4C498.401 52.6933 497.881 53.0533 497.481 53.48C496.654 54.3867 496.108 55.52 495.841 56.88C495.601 58.2667 495.481 59.3067 495.481 60H494.481V51.28ZM511.681 50.72C512.401 50.72 512.761 50.36 512.761 49.64V25.88C512.761 25.16 512.401 24.8 511.681 24.8H507.961C506.628 24.8 505.734 25.2667 505.281 26.2C504.854 27.1067 504.641 28.0533 504.641 29.04C504.641 32.1867 504.361 35.52 503.801 39.04C503.241 42.5333 502.628 45.2533 501.961 47.2C501.881 47.4667 501.761 47.8667 501.601 48.4C501.468 48.9067 501.401 49.2533 501.401 49.44C501.401 49.8933 501.481 50.2267 501.641 50.44C501.801 50.6267 502.174 50.72 502.761 50.72H511.681ZM525.05 50.72H527.93C528.65 50.72 529.01 50.36 529.01 49.64V25.88C529.01 25.5067 528.917 25.24 528.73 25.08C528.57 24.8933 528.304 24.8 527.93 24.8H525.05V23.52H536.65V24.8H533.77C533.397 24.8 533.117 24.8933 532.93 25.08C532.77 25.24 532.69 25.5067 532.69 25.88V46L544.05 27.2V25.88C544.05 25.5067 543.957 25.24 543.77 25.08C543.61 24.8933 543.344 24.8 542.97 24.8H540.09V23.52H551.69V24.8H548.81C548.09 24.8 547.73 25.16 547.73 25.88V49.64C547.73 50.36 548.09 50.72 548.81 50.72H551.69V52H540.09V50.72H542.97C543.69 50.72 544.05 50.36 544.05 49.64V29.52L532.69 48.32V49.64C532.69 50.36 533.05 50.72 533.77 50.72H536.65V52H525.05V50.72ZM559.792 52.48C557.952 52.48 556.765 51.8 556.232 50.44C555.698 49.08 555.432 47.4667 555.432 45.6H556.432C556.432 48.96 557.192 50.64 558.712 50.64C559.298 50.64 559.712 50.3333 559.952 49.72C560.192 49.08 560.352 48.08 560.432 46.72C560.565 44.7733 561.045 43.0667 561.872 41.6C562.725 40.1333 564.205 38.92 566.312 37.96V37.76C564.098 37.52 562.298 36.7867 560.912 35.56C559.552 34.3067 558.872 32.7733 558.872 30.96C558.872 29.4133 559.285 28.08 560.112 26.96C560.938 25.84 562.018 24.9867 563.352 24.4C564.712 23.8133 566.152 23.52 567.672 23.52H581.672V24.8H578.792C578.418 24.8 578.138 24.8933 577.952 25.08C577.792 25.24 577.712 25.5067 577.712 25.88V49.64C577.712 50.36 578.072 50.72 578.792 50.72H581.672V52H569.392V50.72H572.952C573.352 50.72 573.632 50.64 573.792 50.48C573.952 50.2933 574.032 50.0133 574.032 49.64V38.08H568.552C567.405 38.08 566.538 38.7333 565.952 40.04C565.365 41.32 565.032 42.9067 564.952 44.8C564.872 46.4 564.712 47.7333 564.472 48.8C564.232 49.84 563.738 50.72 562.992 51.44C562.272 52.1333 561.205 52.48 559.792 52.48ZM574.032 36.8V25.88C574.032 25.5067 573.938 25.24 573.752 25.08C573.592 24.8933 573.325 24.8 572.952 24.8H567.952C566.512 24.8 565.338 25.3867 564.432 26.56C563.552 27.7333 563.112 29.1733 563.112 30.88C563.112 32.7733 563.578 34.24 564.512 35.28C565.445 36.2933 567.045 36.8 569.312 36.8H574.032Z" fill="#00C3FF"/>
<path d="M129.14 75.56C129.14 74 129.293 72.6733 129.6 71.58C129.92 70.4733 130.407 69.5933 131.06 68.94C131.727 68.2733 132.58 67.8267 133.62 67.6C134.487 67.4133 135.333 67.2467 136.16 67.1C136.987 66.9533 137.76 66.82 138.48 66.7L138.78 68.24C138.433 68.2933 138.047 68.36 137.62 68.44C137.193 68.5067 136.76 68.58 136.32 68.66C135.88 68.7267 135.453 68.8 135.04 68.88C134.64 68.9467 134.287 69.0133 133.98 69.08C133.54 69.1733 133.147 69.3333 132.8 69.56C132.453 69.7733 132.153 70.0667 131.9 70.44C131.66 70.8133 131.467 71.2733 131.32 71.82C131.173 72.3667 131.087 73.0133 131.06 73.76H131.18C131.367 73.5067 131.62 73.2467 131.94 72.98C132.273 72.7133 132.667 72.4867 133.12 72.3C133.587 72.1133 134.113 72.02 134.7 72.02C135.633 72.02 136.407 72.2267 137.02 72.64C137.647 73.04 138.113 73.6 138.42 74.32C138.74 75.04 138.9 75.88 138.9 76.84C138.9 78.0267 138.693 79.02 138.28 79.82C137.867 80.62 137.293 81.22 136.56 81.62C135.827 82.0067 134.973 82.2 134 82.2C133.267 82.2 132.6 82.06 132 81.78C131.4 81.4867 130.887 81.06 130.46 80.5C130.033 79.94 129.707 79.2467 129.48 78.42C129.253 77.5933 129.14 76.64 129.14 75.56ZM134.14 80.74C134.727 80.74 135.233 80.62 135.66 80.38C136.1 80.14 136.44 79.7467 136.68 79.2C136.92 78.6533 137.04 77.9267 137.04 77.02C137.04 75.9267 136.833 75.0667 136.42 74.44C136.02 73.8 135.353 73.48 134.42 73.48C133.833 73.48 133.3 73.6133 132.82 73.88C132.34 74.1333 131.94 74.4267 131.62 74.76C131.3 75.0933 131.073 75.3733 130.94 75.6C130.94 76.2533 130.987 76.8867 131.08 77.5C131.173 78.1133 131.333 78.6667 131.56 79.16C131.8 79.64 132.127 80.0267 132.54 80.32C132.967 80.6 133.5 80.74 134.14 80.74ZM149.833 82H148.053V72.74H144.893C144.759 74.4333 144.593 75.88 144.393 77.08C144.193 78.2667 143.939 79.2333 143.633 79.98C143.326 80.7267 142.959 81.2733 142.533 81.62C142.106 81.9667 141.606 82.14 141.033 82.14C140.859 82.14 140.686 82.1267 140.513 82.1C140.353 82.0867 140.219 82.0533 140.113 82V80.68C140.193 80.7067 140.279 80.7267 140.373 80.74C140.466 80.7533 140.559 80.76 140.653 80.76C140.946 80.76 141.213 80.64 141.453 80.4C141.693 80.16 141.906 79.7933 142.093 79.3C142.293 78.8067 142.473 78.1867 142.633 77.44C142.793 76.68 142.933 75.7867 143.053 74.76C143.173 73.7333 143.279 72.5733 143.373 71.28H149.833V82ZM157.295 71.1C158.602 71.1 159.568 71.3867 160.195 71.96C160.822 72.5333 161.135 73.4467 161.135 74.7V82H159.855L159.515 80.48H159.435C159.128 80.8667 158.808 81.1933 158.475 81.46C158.155 81.7133 157.782 81.9 157.355 82.02C156.942 82.14 156.435 82.2 155.835 82.2C155.195 82.2 154.615 82.0867 154.095 81.86C153.588 81.6333 153.188 81.2867 152.895 80.82C152.602 80.34 152.455 79.74 152.455 79.02C152.455 77.9533 152.875 77.1333 153.715 76.56C154.555 75.9733 155.848 75.6533 157.595 75.6L159.415 75.54V74.9C159.415 74.0067 159.222 73.3867 158.835 73.04C158.448 72.6933 157.902 72.52 157.195 72.52C156.635 72.52 156.102 72.6067 155.595 72.78C155.088 72.94 154.615 73.1267 154.175 73.34L153.635 72.02C154.102 71.7667 154.655 71.5533 155.295 71.38C155.935 71.1933 156.602 71.1 157.295 71.1ZM157.815 76.82C156.482 76.8733 155.555 77.0867 155.035 77.46C154.528 77.8333 154.275 78.36 154.275 79.04C154.275 79.64 154.455 80.08 154.815 80.36C155.188 80.64 155.662 80.78 156.235 80.78C157.142 80.78 157.895 80.5333 158.495 80.04C159.095 79.5333 159.395 78.76 159.395 77.72V76.76L157.815 76.82ZM170.986 71.28V72.76H166.206V82H164.446V71.28H170.986ZM182.223 76.62C182.223 77.5133 182.103 78.3067 181.863 79C181.636 79.68 181.303 80.26 180.863 80.74C180.436 81.22 179.91 81.5867 179.283 81.84C178.67 82.08 177.983 82.2 177.223 82.2C176.516 82.2 175.863 82.08 175.263 81.84C174.663 81.5867 174.143 81.22 173.703 80.74C173.263 80.26 172.916 79.68 172.663 79C172.423 78.3067 172.303 77.5133 172.303 76.62C172.303 75.4333 172.503 74.4333 172.903 73.62C173.303 72.7933 173.876 72.1667 174.623 71.74C175.37 71.3 176.256 71.08 177.283 71.08C178.256 71.08 179.11 71.3 179.843 71.74C180.59 72.1667 181.17 72.7933 181.583 73.62C182.01 74.4333 182.223 75.4333 182.223 76.62ZM174.123 76.62C174.123 77.46 174.23 78.1933 174.443 78.82C174.67 79.4333 175.016 79.9067 175.483 80.24C175.95 80.5733 176.543 80.74 177.263 80.74C177.983 80.74 178.576 80.5733 179.043 80.24C179.51 79.9067 179.85 79.4333 180.063 78.82C180.29 78.1933 180.403 77.46 180.403 76.62C180.403 75.7667 180.29 75.04 180.063 74.44C179.836 73.84 179.49 73.38 179.023 73.06C178.57 72.7267 177.976 72.56 177.243 72.56C176.15 72.56 175.356 72.92 174.863 73.64C174.37 74.36 174.123 75.3533 174.123 76.62ZM192.217 72.76H188.717V82H186.977V72.76H183.517V71.28H192.217V72.76ZM202.949 73.98C202.949 74.6467 202.749 75.1667 202.349 75.54C201.949 75.9133 201.436 76.1667 200.809 76.3V76.38C201.476 76.4733 202.056 76.7133 202.549 77.1C203.042 77.4733 203.289 78.06 203.289 78.86C203.289 79.3133 203.202 79.7333 203.029 80.12C202.869 80.5067 202.616 80.84 202.269 81.12C201.922 81.4 201.476 81.62 200.929 81.78C200.382 81.9267 199.722 82 198.949 82H194.329V71.28H198.929C199.689 71.28 200.369 71.3667 200.969 71.54C201.582 71.7 202.062 71.98 202.409 72.38C202.769 72.7667 202.949 73.3 202.949 73.98ZM201.469 78.86C201.469 78.2467 201.236 77.8067 200.769 77.54C200.302 77.2733 199.616 77.14 198.709 77.14H196.089V80.58H198.749C199.629 80.58 200.302 80.4533 200.769 80.2C201.236 79.9333 201.469 79.4867 201.469 78.86ZM201.169 74.2C201.169 73.6933 200.982 73.3267 200.609 73.1C200.249 72.86 199.656 72.74 198.829 72.74H196.089V75.68H198.509C199.376 75.68 200.036 75.56 200.489 75.32C200.942 75.08 201.169 74.7067 201.169 74.2ZM215.172 76.62C215.172 77.5133 215.052 78.3067 214.812 79C214.586 79.68 214.252 80.26 213.812 80.74C213.386 81.22 212.859 81.5867 212.232 81.84C211.619 82.08 210.932 82.2 210.172 82.2C209.466 82.2 208.812 82.08 208.212 81.84C207.612 81.5867 207.092 81.22 206.652 80.74C206.212 80.26 205.866 79.68 205.612 79C205.372 78.3067 205.252 77.5133 205.252 76.62C205.252 75.4333 205.452 74.4333 205.852 73.62C206.252 72.7933 206.826 72.1667 207.572 71.74C208.319 71.3 209.206 71.08 210.232 71.08C211.206 71.08 212.059 71.3 212.792 71.74C213.539 72.1667 214.119 72.7933 214.532 73.62C214.959 74.4333 215.172 75.4333 215.172 76.62ZM207.072 76.62C207.072 77.46 207.179 78.1933 207.392 78.82C207.619 79.4333 207.966 79.9067 208.432 80.24C208.899 80.5733 209.492 80.74 210.212 80.74C210.932 80.74 211.526 80.5733 211.992 80.24C212.459 79.9067 212.799 79.4333 213.012 78.82C213.239 78.1933 213.352 77.46 213.352 76.62C213.352 75.7667 213.239 75.04 213.012 74.44C212.786 73.84 212.439 73.38 211.972 73.06C211.519 72.7267 210.926 72.56 210.192 72.56C209.099 72.56 208.306 72.92 207.812 73.64C207.319 74.36 207.072 75.3533 207.072 76.62ZM223.062 71.08C224.382 71.08 225.442 71.54 226.242 72.46C227.055 73.38 227.462 74.7667 227.462 76.62C227.462 77.8333 227.275 78.86 226.902 79.7C226.542 80.5267 226.028 81.1533 225.362 81.58C224.708 81.9933 223.935 82.2 223.042 82.2C222.495 82.2 222.008 82.1267 221.582 81.98C221.155 81.8333 220.788 81.6467 220.482 81.42C220.188 81.18 219.935 80.92 219.722 80.64H219.602C219.628 80.8667 219.655 81.1533 219.682 81.5C219.708 81.8467 219.722 82.1467 219.722 82.4V86.8H217.962V71.28H219.402L219.642 72.74H219.722C219.935 72.4333 220.188 72.1533 220.482 71.9C220.788 71.6467 221.148 71.4467 221.562 71.3C221.988 71.1533 222.488 71.08 223.062 71.08ZM222.742 72.56C222.022 72.56 221.442 72.7 221.002 72.98C220.562 73.2467 220.242 73.6533 220.042 74.2C219.842 74.7467 219.735 75.44 219.722 76.28V76.62C219.722 77.5 219.815 78.2467 220.002 78.86C220.188 79.4733 220.502 79.94 220.942 80.26C221.395 80.58 222.008 80.74 222.782 80.74C223.435 80.74 223.968 80.56 224.382 80.2C224.808 79.84 225.122 79.3533 225.322 78.74C225.535 78.1133 225.642 77.4 225.642 76.6C225.642 75.3733 225.402 74.3933 224.922 73.66C224.455 72.9267 223.728 72.56 222.742 72.56ZM231.926 77.82C231.926 77.94 231.92 78.1133 231.906 78.34C231.906 78.5533 231.9 78.7867 231.886 79.04C231.873 79.28 231.86 79.5133 231.846 79.74C231.833 79.9533 231.82 80.1267 231.806 80.26L237.546 71.28H239.706V82H238.066V75.68C238.066 75.4667 238.066 75.1867 238.066 74.84C238.08 74.4933 238.093 74.1533 238.106 73.82C238.12 73.4733 238.133 73.2133 238.146 73.04L232.446 82H230.266V71.28H231.926V77.82ZM250.518 72.76H247.018V82H245.278V72.76H241.818V71.28H250.518V72.76ZM256.574 71.08C257.494 71.08 258.281 71.28 258.934 71.68C259.601 72.08 260.108 72.6467 260.454 73.38C260.814 74.1 260.994 74.9467 260.994 75.92V76.98H253.654C253.681 78.1933 253.988 79.12 254.574 79.76C255.174 80.3867 256.008 80.7 257.074 80.7C257.754 80.7 258.354 80.64 258.874 80.52C259.408 80.3867 259.954 80.2 260.514 79.96V81.5C259.968 81.74 259.428 81.9133 258.894 82.02C258.361 82.14 257.728 82.2 256.994 82.2C255.981 82.2 255.081 81.9933 254.294 81.58C253.521 81.1667 252.914 80.5533 252.474 79.74C252.048 78.9133 251.834 77.9067 251.834 76.72C251.834 75.5467 252.028 74.54 252.414 73.7C252.814 72.86 253.368 72.2133 254.074 71.76C254.794 71.3067 255.628 71.08 256.574 71.08ZM256.554 72.52C255.714 72.52 255.048 72.7933 254.554 73.34C254.074 73.8733 253.788 74.62 253.694 75.58H259.154C259.154 74.9667 259.061 74.4333 258.874 73.98C258.688 73.5267 258.401 73.1733 258.014 72.92C257.641 72.6533 257.154 72.52 256.554 72.52ZM271.883 82H270.103V72.74H266.943C266.81 74.4333 266.643 75.88 266.443 77.08C266.243 78.2667 265.99 79.2333 265.683 79.98C265.377 80.7267 265.01 81.2733 264.583 81.62C264.157 81.9667 263.657 82.14 263.083 82.14C262.91 82.14 262.737 82.1267 262.563 82.1C262.403 82.0867 262.27 82.0533 262.163 82V80.68C262.243 80.7067 262.33 80.7267 262.423 80.74C262.517 80.7533 262.61 80.76 262.703 80.76C262.997 80.76 263.263 80.64 263.503 80.4C263.743 80.16 263.957 79.7933 264.143 79.3C264.343 78.8067 264.523 78.1867 264.683 77.44C264.843 76.68 264.983 75.7867 265.103 74.76C265.223 73.7333 265.33 72.5733 265.423 71.28H271.883V82ZM280.226 75.68C281.159 75.68 281.933 75.7933 282.546 76.02C283.159 76.2467 283.619 76.5867 283.926 77.04C284.246 77.48 284.406 78.04 284.406 78.72C284.406 79.3867 284.253 79.9667 283.946 80.46C283.653 80.9533 283.193 81.3333 282.566 81.6C281.939 81.8667 281.133 82 280.146 82H275.286V71.28H277.046V75.68H280.226ZM282.646 78.82C282.646 78.1667 282.413 77.7267 281.946 77.5C281.493 77.26 280.853 77.14 280.026 77.14H277.046V80.58H280.066C280.813 80.58 281.426 80.4467 281.906 80.18C282.399 79.9133 282.646 79.46 282.646 78.82ZM288.921 71.28V75.74H294.741V71.28H296.501V82H294.741V77.22H288.921V82H287.161V71.28H288.921ZM299.895 82V71.28H301.655V75.68H304.435C305.369 75.68 306.135 75.7933 306.735 76.02C307.335 76.2467 307.782 76.5867 308.075 77.04C308.369 77.48 308.515 78.04 308.515 78.72C308.515 79.3867 308.369 79.9667 308.075 80.46C307.795 80.9533 307.349 81.3333 306.735 81.6C306.135 81.8667 305.342 82 304.355 82H299.895ZM304.195 80.58C304.955 80.58 305.575 80.4533 306.055 80.2C306.535 79.9333 306.775 79.4733 306.775 78.82C306.775 78.1667 306.555 77.7267 306.115 77.5C305.675 77.26 305.042 77.14 304.215 77.14H301.655V80.58H304.195ZM310.295 82V71.28H312.055V82H310.295ZM324.142 66.84C324.088 67.5067 323.922 68.0667 323.642 68.52C323.375 68.9733 322.975 69.3133 322.442 69.54C321.908 69.7667 321.215 69.88 320.362 69.88C319.495 69.88 318.795 69.7667 318.262 69.54C317.742 69.3133 317.362 68.98 317.122 68.54C316.882 68.0867 316.735 67.52 316.682 66.84H318.322C318.388 67.56 318.575 68.0467 318.882 68.3C319.202 68.54 319.708 68.66 320.402 68.66C321.015 68.66 321.495 68.5333 321.842 68.28C322.202 68.0133 322.415 67.5333 322.482 66.84H324.142ZM317.122 77.82C317.122 77.94 317.115 78.1133 317.102 78.34C317.102 78.5533 317.095 78.7867 317.082 79.04C317.068 79.28 317.055 79.5133 317.042 79.74C317.028 79.9533 317.015 80.1267 317.002 80.26L322.742 71.28H324.902V82H323.262V75.68C323.262 75.4667 323.262 75.1867 323.262 74.84C323.275 74.4933 323.288 74.1533 323.302 73.82C323.315 73.4733 323.328 73.2133 323.342 73.04L317.642 82H315.462V71.28H317.122V77.82ZM340.28 71.12C341.346 71.2133 342.273 71.4933 343.06 71.96C343.86 72.4267 344.48 73.0533 344.92 73.84C345.36 74.6267 345.58 75.56 345.58 76.64C345.58 77.72 345.366 78.66 344.94 79.46C344.513 80.2467 343.906 80.8733 343.12 81.34C342.333 81.7933 341.386 82.0667 340.28 82.16V86.8H338.56V82.16C337.506 82.0667 336.58 81.7933 335.78 81.34C334.98 80.8733 334.36 80.2467 333.92 79.46C333.48 78.66 333.26 77.72 333.26 76.64C333.26 75.5467 333.473 74.6067 333.9 73.82C334.326 73.02 334.94 72.3933 335.74 71.94C336.54 71.4733 337.5 71.2 338.62 71.12V66.8H340.28V71.12ZM338.62 72.58C337.806 72.66 337.14 72.8667 336.62 73.2C336.1 73.5333 335.713 73.9867 335.46 74.56C335.22 75.1333 335.1 75.8267 335.1 76.64C335.1 77.44 335.22 78.1333 335.46 78.72C335.713 79.2933 336.1 79.7533 336.62 80.1C337.14 80.4333 337.806 80.64 338.62 80.72V72.58ZM340.28 80.72C341.08 80.6267 341.733 80.4133 342.24 80.08C342.76 79.7467 343.14 79.2933 343.38 78.72C343.633 78.1333 343.76 77.44 343.76 76.64C343.76 75.84 343.633 75.1533 343.38 74.58C343.126 74.0067 342.74 73.5533 342.22 73.22C341.713 72.8867 341.066 72.68 340.28 72.6V80.72ZM357.692 76.62C357.692 77.5133 357.572 78.3067 357.332 79C357.105 79.68 356.772 80.26 356.332 80.74C355.905 81.22 355.379 81.5867 354.752 81.84C354.139 82.08 353.452 82.2 352.692 82.2C351.985 82.2 351.332 82.08 350.732 81.84C350.132 81.5867 349.612 81.22 349.172 80.74C348.732 80.26 348.385 79.68 348.132 79C347.892 78.3067 347.772 77.5133 347.772 76.62C347.772 75.4333 347.972 74.4333 348.372 73.62C348.772 72.7933 349.345 72.1667 350.092 71.74C350.839 71.3 351.725 71.08 352.752 71.08C353.725 71.08 354.579 71.3 355.312 71.74C356.059 72.1667 356.639 72.7933 357.052 73.62C357.479 74.4333 357.692 75.4333 357.692 76.62ZM349.592 76.62C349.592 77.46 349.699 78.1933 349.912 78.82C350.139 79.4333 350.485 79.9067 350.952 80.24C351.419 80.5733 352.012 80.74 352.732 80.74C353.452 80.74 354.045 80.5733 354.512 80.24C354.979 79.9067 355.319 79.4333 355.532 78.82C355.759 78.1933 355.872 77.46 355.872 76.62C355.872 75.7667 355.759 75.04 355.532 74.44C355.305 73.84 354.959 73.38 354.492 73.06C354.039 72.7267 353.445 72.56 352.712 72.56C351.619 72.56 350.825 72.92 350.332 73.64C349.839 74.36 349.592 75.3533 349.592 76.62ZM362.241 71.28V75.74H368.061V71.28H369.821V82H368.061V77.22H362.241V82H360.481V71.28H362.241ZM381.176 71.28V80.52H382.736V85.72H381.036V82H373.576V85.72H371.896V80.52H372.756C373.369 79.6667 373.876 78.74 374.276 77.74C374.689 76.7267 374.996 75.6733 375.196 74.58C375.409 73.4733 375.522 72.3733 375.536 71.28H381.176ZM377.096 72.66C377.042 73.5667 376.902 74.5067 376.676 75.48C376.449 76.44 376.156 77.36 375.796 78.24C375.449 79.12 375.042 79.88 374.576 80.52H379.476V72.66H377.096Z" fill="#00C3FF"/>
<path d="M49.9375 15.4317C53.8541 12.6117 58.3975 11.2017 63.5283 11.2017C66.3483 11.2017 69.4425 11.9458 72.8108 13.5125C76.1791 15.04 78.8425 16.8417 80.8008 18.9175C84.835 23.9308 86.5191 29.7667 85.9316 36.425C85.305 43.0833 83.1116 48.2925 79.3125 51.9742L49.585 81.7017C48.8408 82.4458 47.9008 82.7983 46.8041 82.7983C45.7075 82.7983 44.8066 82.4458 44.0625 81.7017C43.7003 81.3451 43.416 80.9174 43.2272 80.4456C43.0385 79.9738 42.9495 79.4679 42.9658 78.96C42.9658 77.8633 43.3183 76.9233 44.0625 76.1792L62.04 58.2017C63.0191 57.34 63.0191 56.4392 62.04 55.46C61.0608 54.4808 60.16 54.4808 59.2983 55.46L41.3208 73.4375C40.9583 73.8026 40.524 74.0886 40.0454 74.2774C39.5667 74.4661 39.0541 74.5536 38.54 74.5342C37.4433 74.5342 36.5425 74.1817 35.7983 73.4375C35.4362 73.081 35.1518 72.6533 34.9631 72.1814C34.7743 71.7096 34.6853 71.2038 34.7016 70.6958C34.7016 69.5992 35.0541 68.6592 35.7983 67.915L53.7758 49.9375C54.8333 48.9583 54.8333 47.9792 53.7758 47C52.875 46.0208 52.0133 46.0208 51.0341 47L33.0566 65.1733C32.69 65.5328 32.255 65.8151 31.7774 66.0035C31.2997 66.1919 30.7891 66.2825 30.2758 66.27C29.1791 66.27 28.2391 65.9175 27.4166 65.1733C26.6333 64.4292 26.2416 63.5283 26.2416 62.4317C26.2416 61.335 26.6725 60.3558 27.5341 59.4942L45.5508 41.4775C46.53 40.4983 46.53 39.5975 45.5508 38.7358C44.5716 37.8742 43.6316 37.8742 42.77 38.7358L24.5966 56.7917C23.735 57.575 22.8341 58.0058 21.855 58.0058C20.7583 58.0058 19.8183 57.6142 19.1133 56.7917C18.3691 56.0083 17.9775 55.0683 17.9775 53.9717C17.9775 52.875 18.3691 51.9742 19.1133 51.23C31.0983 39.1667 38.5008 31.8817 41.3208 29.1792L55.2641 42.9658C56.7916 44.415 58.5541 45.1592 60.7083 45.1592C63.45 45.1592 65.6041 44.0625 67.21 41.8692C68.3066 40.2633 68.6983 38.5008 68.385 36.5425C68.0716 34.5842 67.2491 32.9392 65.9175 31.5683L49.9375 15.4317ZM58.0058 40.2242L41.3208 23.5L13.5908 51.23C10.3008 47.9008 8.4208 42.8092 7.98996 35.8767C7.55913 28.9833 9.43913 22.9908 13.5908 17.9775C18.2516 13.3558 23.8133 11.0058 30.2758 11.0058C36.7775 11.0058 42.3 13.3558 46.8041 17.9775L63.5283 34.7017C64.2725 35.4458 64.625 36.3467 64.625 37.4433C64.625 38.54 64.2725 39.48 63.5283 40.2242C62.7841 40.9292 61.8833 41.3208 60.7083 41.3208C59.6508 41.3208 58.75 40.9292 58.0058 40.2242Z" fill="#FF4800" fill-opacity="0.83"/>
</svg>
